# xmcd
#
# Track frame offsets:
#   182
#   21855
#   43940
#   66137
#   91775
#   113092
#   131575
#   148697
#   165972
#   186047
#   205770
#
# Disc length: 2955 seconds
#
# Revision: 0
# Processed by: cddbd v1.4PL0 Copyright (c) Steve Scherf et al.
# Submitted via: uFREEDB 1.6.0
#
DISCID=900b890b
DTITLE=David, Kal - Double Tuff
DYEAR=1993
DGENRE=Blues
TTITLE0=Thing Called Love
TTITLE1=Just Wanna Be With You
TTITLE2=Opportunity
TTITLE3=Your Good Thing
TTITLE4=Can't Get You Off Of My Heart
TTITLE5=Blue Nights
TTITLE6=Your Precious Love
TTITLE7=Double Tuff
TTITLE8=Modern Man
TTITLE9=That's Not Me
TTITLE10=Crazy Love
EXTD=
EXTT0=
EXTT1=
EXTT2=
EXTT3=
EXTT4=
EXTT5=
EXTT6=
EXTT7=
EXTT8=
EXTT9=
EXTT10=
PLAYORDER=
